<svg xmlns="http://www.w3.org/2000/svg" viewBox="0 0 900 620" role="img" aria-label="Ресторан Lauren Parker">
  <defs>
    <linearGradient id="room" x1="0" x2="1" y1="0" y2="1">
      <stop offset="0" stop-color="#f6efe7"/>
      <stop offset=".5" stop-color="#ded0c0"/>
      <stop offset="1" stop-color="#b7a087"/>
    </linearGradient>
    <linearGradient id="table" x1="0" x2="1">
      <stop offset="0" stop-color="#fffdf8"/>
      <stop offset="1" stop-color="#eadfd0"/>
    </linearGradient>
    <filter id="grain">
      <feTurbulence baseFrequency=".75" numOctaves="3" seed="12" type="fractalNoise"/>
      <feColorMatrix type="saturate" values="0"/>
      <feComponentTransfer>
        <feFuncA type="table" tableValues="0 .07"/>
      </feComponentTransfer>
      <feBlend in="SourceGraphic"/>
    </filter>
  </defs>
  <rect width="900" height="620" fill="url(#room)"/>
  <path d="M0 250 C150 210 270 228 430 188 C590 150 730 174 900 118 L900 0 L0 0 Z" fill="#d9e6ea" opacity=".42"/>
  <g opacity=".72">
    <circle cx="236" cy="128" r="38" fill="#fff9eb"/>
    <circle cx="452" cy="94" r="34" fill="#fff9eb"/>
    <circle cx="672" cy="138" r="40" fill="#fff9eb"/>
  </g>
  <g transform="translate(96 240)">
    <ellipse cx="348" cy="174" rx="330" ry="122" fill="url(#table)"/>
    <ellipse cx="348" cy="150" rx="330" ry="110" fill="#fffdf8"/>
    <g stroke="#c7b59d" stroke-width="6" opacity=".66">
      <path d="M162 70 L130 190"/>
      <path d="M286 46 L262 198"/>
      <path d="M418 46 L442 198"/>
      <path d="M536 70 L568 190"/>
    </g>
    <g fill="#aeb99f">
      <circle cx="190" cy="92" r="20"/>
      <circle cx="270" cy="70" r="18"/>
      <circle cx="432" cy="70" r="18"/>
      <circle cx="514" cy="92" r="20"/>
    </g>
    <g fill="#d8aaa2">
      <circle cx="224" cy="78" r="14"/>
      <circle cx="354" cy="62" r="18"/>
      <circle cx="478" cy="78" r="14"/>
    </g>
    <g fill="#c7b59d" opacity=".72">
      <rect x="150" y="128" width="70" height="10" rx="5"/>
      <rect x="282" y="120" width="70" height="10" rx="5"/>
      <rect x="414" y="120" width="70" height="10" rx="5"/>
      <rect x="544" y="128" width="70" height="10" rx="5"/>
    </g>
  </g>
  <path d="M96 528 C240 494 360 520 488 482 C620 444 742 464 822 420" fill="none" stroke="#fffdf8" stroke-width="8" opacity=".35"/>
  <rect width="900" height="620" fill="transparent" filter="url(#grain)"/>
</svg>
